<?xml version="1.0" encoding="UTF-8"?>
<svg width="1510px" height="436px" viewBox="0 0 1510 436" version="1.1" xmlns="http://www.w3.org/2000/svg" xmlns:xlink="http://www.w3.org/1999/xlink">
    <!-- Generator: Sketch 55 (78076) - https://sketchapp.com -->
    <title>Logo-White</title>
    <desc>Created with Sketch.</desc>
    <g id="Page-1" stroke="none" stroke-width="1" fill="none" fill-rule="evenodd">
        <g id="Logo-White" transform="translate(10.000000, 10.000000)">
            <circle id="Oval" stroke="#FFFFFF" stroke-width="19" cx="208" cy="208" r="208"></circle>
            <path d="M134.725587,195.28124 C132.425753,125.760413 156.654508,91 207.411853,91 C258.187789,91 282.939947,125.785882 281.668327,195.357645 L281.668329,195.357645 C281.55173,201.736931 285.48337,207.491851 291.468484,209.702574 C299.156161,212.542174 303,219.15818 303,229.550592 C303,243.850197 295.722528,251 281.167584,251 L208.294253,251 L135.420922,251 C121.140307,251 114,243.850197 114,229.550592 C114,219.235877 117.715209,212.641312 125.145628,209.766897 L125.145628,209.766898 C131.093704,207.465918 134.936451,201.65538 134.725587,195.28124 Z" id="Path" stroke="#FFFFFF" stroke-width="19" stroke-linejoin="round"></path>
            <path d="M209.096142,251.407109 L209.096142,297.149027" id="Line" stroke="#FFFFFF" stroke-width="19" fill="#D8D8D8" stroke-linecap="square"></path>
            <circle id="Oval" stroke="#FFFFFF" stroke-width="19" cx="209" cy="314" r="17"></circle>
            <circle id="Oval" stroke="#FFFFFF" stroke-width="19" cx="1021.5" cy="118" r="17"></circle>
            <path d="M629.96,137.2 C634.82,137.2 638.6,140.98 638.6,145.57 C638.6,150.43 634.82,154.21 629.96,154.21 C606.2,154.21 588.11,173.65 588.11,199.3 L588.11,274.36 C588.11,279.22 584.33,283 579.47,283 C574.88,283 571.1,279.22 571.1,274.36 L571.1,145.57 C571.1,140.98 574.88,137.2 579.47,137.2 C584.33,137.2 588.11,140.98 588.11,145.57 L588.11,154.48 C598.64,143.68 613.22,137.2 629.96,137.2 Z M706.1,283 C666.68,283 637.25,251.68 637.25,210.1 C637.25,190.39 643.73,172.3 655.61,158.8 C668.03,144.76 685.58,137.2 704.75,137.2 C743.36,137.2 771.17,167.71 771.17,210.1 C771.17,214.69 767.39,218.74 762.53,218.74 L654.8,218.74 C658.58,246.01 679.37,265.72 706.1,265.72 C724.19,265.72 740.12,257.08 749.3,241.42 C752,237.37 757.13,236.29 761.18,238.72 C765.23,241.15 766.58,246.55 764.15,250.6 C751.46,271.12 730.4,283 706.1,283 Z M654.8,201.46 L753.35,201.46 C750.11,173.38 731.21,154.21 704.75,154.21 C678.29,154.21 658.31,173.65 654.8,201.46 Z M940.46,137.2 C971.51,137.2 994.19,163.39 994.19,199.3 L994.19,274.36 C994.19,279.22 990.41,283 985.55,283 C980.69,283 976.91,279.22 976.91,274.36 L976.91,199.3 C976.91,172.84 962.06,154.21 940.46,154.21 C916.97,154.21 899.96,173.38 899.96,199.3 L899.96,274.36 C899.96,279.22 896.18,283 891.32,283 C886.73,283 882.95,279.22 882.95,274.36 L882.95,199.3 C882.95,172.84 867.83,154.21 846.5,154.21 C823.01,154.21 806,173.38 806,199.3 L806,274.36 C806,279.22 801.95,283 797.36,283 C792.5,283 788.72,279.22 788.72,274.36 L788.72,145.57 C788.72,140.98 792.5,137.2 797.36,137.2 C801.95,137.2 806,140.98 806,145.57 L806,153.94 C816.53,143.14 830.57,137.2 846.5,137.2 C866.21,137.2 882.68,147.73 891.86,164.74 C893.75,161.5 895.91,158.53 898.34,155.83 C908.87,143.68 923.99,137.2 940.46,137.2 Z M1023.35,283 C1018.76,283 1014.71,279.759259 1014.71,275.592593 L1014.71,165.175926 C1014.71,161.240741 1018.76,158 1023.35,158 C1028.21,158 1031.99,161.240741 1031.99,165.175926 L1031.99,275.592593 C1031.99,279.759259 1028.21,283 1023.35,283 Z M1155.38,155.83 C1165.37,167.17 1170.77,182.56 1170.77,199.3 L1170.77,274.36 C1170.77,279.22 1166.99,283 1162.4,283 C1157.54,283 1153.76,279.22 1153.76,274.36 L1153.76,199.3 C1153.76,173.38 1136.75,154.21 1113.26,154.21 C1088.96,154.21 1070.06,174.19 1070.06,199.3 L1070.06,274.36 C1070.06,279.22 1066.28,283 1061.42,283 C1056.83,283 1053.05,279.22 1053.05,274.36 L1053.05,145.57 C1053.05,140.98 1056.83,137.2 1061.42,137.2 C1066.28,137.2 1070.06,140.98 1070.06,145.57 L1070.06,155.29 C1081.13,143.95 1096.25,137.2 1113.26,137.2 C1129.73,137.2 1144.85,143.68 1155.38,155.83 Z M1316.57,92.38 C1321.16,92.38 1324.94,96.16 1324.94,101.02 L1324.94,274.36 C1324.94,279.22 1321.16,283 1316.57,283 C1311.71,283 1307.93,279.22 1307.93,274.36 L1307.93,259.24 C1295.51,274.09 1277.15,283 1256.09,283 C1216.67,283 1186.97,251.68 1186.97,210.1 C1186.97,168.52 1216.67,137.2 1256.09,137.2 C1277.15,137.2 1295.51,146.11 1307.93,160.69 L1307.93,101.02 C1307.93,96.16 1311.71,92.38 1316.57,92.38 Z M1256.09,265.72 C1285.52,265.72 1307.93,241.69 1307.93,210.1 C1307.93,178.24 1285.52,154.21 1256.09,154.21 C1226.66,154.21 1204.25,178.24 1204.25,210.1 C1204.25,241.69 1226.66,265.72 1256.09,265.72 Z M1353.83,92.38 C1358.69,92.38 1362.47,96.16 1362.47,101.02 L1362.47,274.36 C1362.47,279.22 1358.69,283 1353.83,283 C1348.97,283 1345.19,279.22 1345.19,274.36 L1345.19,101.02 C1345.19,96.16 1348.97,92.38 1353.83,92.38 Z M1490.99,137.2 C1495.58,137.2 1499.63,140.98 1499.63,145.57 L1499.63,294.07 C1499.63,328.9 1471.28,357.25 1436.45,357.25 C1413.5,357.25 1392.44,344.83 1381.1,324.58 C1378.94,320.53 1380.29,315.4 1384.61,312.97 C1388.66,310.81 1394.06,312.16 1396.22,316.48 C1404.32,331.06 1419.71,339.97 1436.45,339.97 C1461.83,339.97 1482.35,319.45 1482.35,294.07 L1482.35,265.18 C1471.55,276.25 1456.7,283 1439.96,283 C1405.94,283 1380.02,256 1380.02,219.82 L1380.02,145.57 C1380.02,140.98 1384.07,137.2 1388.66,137.2 C1393.52,137.2 1397.3,140.98 1397.3,145.57 L1397.3,219.82 C1397.3,246.01 1415.66,265.72 1439.96,265.72 C1463.99,265.72 1482.35,246.01 1482.35,219.82 L1482.35,145.57 C1482.35,140.98 1486.13,137.2 1490.99,137.2 Z" id="remindly" fill="#FFFFFF" fill-rule="nonzero"></path>
        </g>
    </g>
</svg>