<?xml version="1.0" encoding="UTF-8"?>
<svg width="929px" height="797px" viewBox="0 0 929 797" version="1.1" xmlns="http://www.w3.org/2000/svg" xmlns:xlink="http://www.w3.org/1999/xlink">
    <!-- Generator: Sketch 55 (78076) - https://sketchapp.com -->
    <title>logo-compact-dark-gray</title>
    <desc>Created with Sketch.</desc>
    <g id="Page-1" stroke="none" stroke-width="1" fill="none" fill-rule="evenodd">
        <g id="logo-compact-dark-gray" transform="translate(0.000000, 10.000000)">
            <g id="Icon" transform="translate(257.000000, 0.000000)" stroke="#252525" stroke-width="19">
                <circle id="Oval" cx="208" cy="208" r="208"></circle>
                <path d="M134.725587,195.28124 C132.425753,125.760413 156.654508,91 207.411853,91 C258.187789,91 282.939947,125.785882 281.668327,195.357645 L281.668329,195.357645 C281.55173,201.736931 285.48337,207.491851 291.468484,209.702574 C299.156161,212.542174 303,219.15818 303,229.550592 C303,243.850197 295.722528,251 281.167584,251 L208.294253,251 L135.420922,251 C121.140307,251 114,243.850197 114,229.550592 C114,219.235877 117.715209,212.641312 125.145628,209.766897 L125.145628,209.766898 C131.093704,207.465918 134.936451,201.65538 134.725587,195.28124 Z" id="Path" stroke-linejoin="round"></path>
                <path d="M209.096142,251.407109 L209.096142,297.149027" id="Line" fill="#D8D8D8" stroke-linecap="square"></path>
                <circle id="Oval" cx="209" cy="314" r="17"></circle>
            </g>
            <g id="Text" transform="translate(0.000000, 522.000000)">
                <circle id="Oval" stroke="#252525" stroke-width="19" cx="450.4" cy="25.62" r="17"></circle>
                <path d="M58.86,44.82 C63.72,44.82 67.5,48.6 67.5,53.19 C67.5,58.05 63.72,61.83 58.86,61.83 C35.1,61.83 17.01,81.27 17.01,106.92 L17.01,181.98 C17.01,186.84 13.23,190.62 8.37,190.62 C3.78,190.62 0,186.84 0,181.98 L0,53.19 C0,48.6 3.78,44.82 8.37,44.82 C13.23,44.82 17.01,48.6 17.01,53.19 L17.01,62.1 C27.54,51.3 42.12,44.82 58.86,44.82 Z M135,190.62 C95.58,190.62 66.15,159.3 66.15,117.72 C66.15,98.01 72.63,79.92 84.51,66.42 C96.93,52.38 114.48,44.82 133.65,44.82 C172.26,44.82 200.07,75.33 200.07,117.72 C200.07,122.31 196.29,126.36 191.43,126.36 L83.7,126.36 C87.48,153.63 108.27,173.34 135,173.34 C153.09,173.34 169.02,164.7 178.2,149.04 C180.9,144.99 186.03,143.91 190.08,146.34 C194.13,148.77 195.48,154.17 193.05,158.22 C180.36,178.74 159.3,190.62 135,190.62 Z M83.7,109.08 L182.25,109.08 C179.01,81 160.11,61.83 133.65,61.83 C107.19,61.83 87.21,81.27 83.7,109.08 Z M369.36,44.82 C400.41,44.82 423.09,71.01 423.09,106.92 L423.09,181.98 C423.09,186.84 419.31,190.62 414.45,190.62 C409.59,190.62 405.81,186.84 405.81,181.98 L405.81,106.92 C405.81,80.46 390.96,61.83 369.36,61.83 C345.87,61.83 328.86,81 328.86,106.92 L328.86,181.98 C328.86,186.84 325.08,190.62 320.22,190.62 C315.63,190.62 311.85,186.84 311.85,181.98 L311.85,106.92 C311.85,80.46 296.73,61.83 275.4,61.83 C251.91,61.83 234.9,81 234.9,106.92 L234.9,181.98 C234.9,186.84 230.85,190.62 226.26,190.62 C221.4,190.62 217.62,186.84 217.62,181.98 L217.62,53.19 C217.62,48.6 221.4,44.82 226.26,44.82 C230.85,44.82 234.9,48.6 234.9,53.19 L234.9,61.56 C245.43,50.76 259.47,44.82 275.4,44.82 C295.11,44.82 311.58,55.35 320.76,72.36 C322.65,69.12 324.81,66.15 327.24,63.45 C337.77,51.3 352.89,44.82 369.36,44.82 Z M452.25,190.62 C447.66,190.62 443.61,187.379259 443.61,183.212593 L443.61,72.7959259 C443.61,68.8607407 447.66,65.62 452.25,65.62 C457.11,65.62 460.89,68.8607407 460.89,72.7959259 L460.89,183.212593 C460.89,187.379259 457.11,190.62 452.25,190.62 Z M584.28,63.45 C594.27,74.79 599.67,90.18 599.67,106.92 L599.67,181.98 C599.67,186.84 595.89,190.62 591.3,190.62 C586.44,190.62 582.66,186.84 582.66,181.98 L582.66,106.92 C582.66,81 565.65,61.83 542.16,61.83 C517.86,61.83 498.96,81.81 498.96,106.92 L498.96,181.98 C498.96,186.84 495.18,190.62 490.32,190.62 C485.73,190.62 481.95,186.84 481.95,181.98 L481.95,53.19 C481.95,48.6 485.73,44.82 490.32,44.82 C495.18,44.82 498.96,48.6 498.96,53.19 L498.96,62.91 C510.03,51.57 525.15,44.82 542.16,44.82 C558.63,44.82 573.75,51.3 584.28,63.45 Z M745.47,-5.68434189e-14 C750.06,-5.68434189e-14 753.84,3.78 753.84,8.64 L753.84,181.98 C753.84,186.84 750.06,190.62 745.47,190.62 C740.61,190.62 736.83,186.84 736.83,181.98 L736.83,166.86 C724.41,181.71 706.05,190.62 684.99,190.62 C645.57,190.62 615.87,159.3 615.87,117.72 C615.87,76.14 645.57,44.82 684.99,44.82 C706.05,44.82 724.41,53.73 736.83,68.31 L736.83,8.64 C736.83,3.78 740.61,-5.68434189e-14 745.47,-5.68434189e-14 Z M684.99,173.34 C714.42,173.34 736.83,149.31 736.83,117.72 C736.83,85.86 714.42,61.83 684.99,61.83 C655.56,61.83 633.15,85.86 633.15,117.72 C633.15,149.31 655.56,173.34 684.99,173.34 Z M782.73,-5.68434189e-14 C787.59,-5.68434189e-14 791.37,3.78 791.37,8.64 L791.37,181.98 C791.37,186.84 787.59,190.62 782.73,190.62 C777.87,190.62 774.09,186.84 774.09,181.98 L774.09,8.64 C774.09,3.78 777.87,-5.68434189e-14 782.73,-5.68434189e-14 Z M919.89,44.82 C924.48,44.82 928.53,48.6 928.53,53.19 L928.53,201.69 C928.53,236.52 900.18,264.87 865.35,264.87 C842.4,264.87 821.34,252.45 810,232.2 C807.84,228.15 809.19,223.02 813.51,220.59 C817.56,218.43 822.96,219.78 825.12,224.1 C833.22,238.68 848.61,247.59 865.35,247.59 C890.73,247.59 911.25,227.07 911.25,201.69 L911.25,172.8 C900.45,183.87 885.6,190.62 868.86,190.62 C834.84,190.62 808.92,163.62 808.92,127.44 L808.92,53.19 C808.92,48.6 812.97,44.82 817.56,44.82 C822.42,44.82 826.2,48.6 826.2,53.19 L826.2,127.44 C826.2,153.63 844.56,173.34 868.86,173.34 C892.89,173.34 911.25,153.63 911.25,127.44 L911.25,53.19 C911.25,48.6 915.03,44.82 919.89,44.82 Z" id="remindly" fill="#252525" fill-rule="nonzero"></path>
            </g>
        </g>
    </g>
</svg>